<svg width="81" height="80" viewBox="0 0 81 80" fill="none" xmlns="http://www.w3.org/2000/svg">
<mask id="mask0_1_52" style="mask-type:alpha" maskUnits="userSpaceOnUse" x="0" y="0" width="81" height="80">
<rect x="1" y="1" width="78.0044" height="78" rx="9" fill="white" stroke="#0D161A" stroke-width="2"/>
</mask>
<g mask="url(#mask0_1_52)">
<path d="M40.0023 97.8999C70.8751 97.8999 95.9024 72.8726 95.9024 41.9998C95.9024 11.127 70.8751 -13.9004 40.0023 -13.9004C9.12947 -13.9004 -15.8979 11.127 -15.8979 41.9998C-15.8979 72.8726 9.12947 97.8999 40.0023 97.8999Z" fill="#4353FF"/>
<path d="M52.3405 32.614L47.851 46.7635C47.851 45.6799 44.7549 22.2109 44.7549 22.2109C37.6337 22.2109 33.8564 27.2577 31.8748 32.614L26.3946 46.7945C26.3946 45.7728 25.6206 32.7379 25.6206 32.7379C25.3562 29.9161 24.0662 27.2893 21.9949 25.3549C19.9235 23.4205 17.2147 22.3129 14.3815 22.2419L20.2023 57.7859C27.6331 57.7859 31.6581 52.7391 33.7325 47.3828L38.3768 35.3077C38.3768 35.8031 41.4729 57.7859 41.4729 57.7859C44.5115 57.782 47.4698 56.8106 49.9192 55.0125C52.3687 53.2144 54.1819 50.683 55.0961 47.7853L65.623 22.2109C58.1922 22.2109 54.291 27.2577 52.3095 32.614H52.3405Z" fill="white"/>
</g>
</svg>
