<svg width="102" height="102" viewBox="0 0 102 102" fill="none" xmlns="http://www.w3.org/2000/svg">
<g id="Logo">
<circle id="Ellipse 30" cx="50.6894" cy="50.6894" r="50.6894" fill="#0D161A"/>
<path id="Vector" d="M32.2597 72.0316C31.8104 71.1618 31.4659 70.2469 31.2562 69.2721C31.0166 68.2822 30.9117 67.2624 30.9117 66.1826C30.9117 65.1027 31.0915 63.678 31.4659 61.9083C31.8403 60.1385 32.3496 58.2638 32.9936 56.3142C33.6376 54.3495 34.3865 52.3398 35.2402 50.2852C36.0939 48.2305 37.0075 46.2358 37.9661 44.2711C39.9281 40.2068 41.8902 36.6824 43.8522 33.7128H43.5077C41.1114 33.7128 38.8947 34.2528 36.8428 35.3476C36.3485 35.7375 35.8693 35.9175 35.405 35.9175C34.4464 35.9175 33.5028 35.4376 32.6042 34.4927C30.5074 32.2731 31.7655 30.4434 36.3485 29.0036C38.5053 28.2987 40.2277 27.9388 41.5457 27.9388C42.8637 27.9388 43.9271 28.1488 44.7209 28.5537C45.5147 28.9586 46.2037 29.4535 46.7728 30.0235C47.6565 30.9083 48.2855 31.7782 48.66 32.648C49.0344 33.5179 49.2141 34.2678 49.2141 34.9277C49.2141 35.5876 49.0194 36.4574 48.63 37.5522C48.2406 38.6471 47.7464 39.8169 47.1323 41.0617L45.0804 45.051C44.3615 46.4458 43.6276 47.9005 42.9086 49.4303C42.1897 50.96 41.4558 52.4898 40.7369 54.0195C40.018 55.5493 39.374 57.0341 38.8048 58.4888C37.5767 61.7283 36.9626 64.4728 36.9626 66.7375C36.9626 68.1023 37.0974 69.2271 37.352 70.1119C38.2357 68.7022 39.3141 67.2324 40.6021 65.7026L44.8258 60.9634C49.7084 55.6843 52.8836 52.1898 54.3514 50.4651C57.7812 46.4158 60.4172 42.6064 62.2445 39.022C62.9934 37.5972 63.3528 36.2924 63.3528 35.1226C63.3528 32.963 62.7537 31.3432 61.5705 30.2634C61.1511 29.8435 61.0912 29.3336 61.4058 28.7187C61.7203 28.1038 62.0348 27.6688 62.3493 27.3539C63.1282 26.649 64.0118 26.2891 65.0003 26.2891C65.9888 26.2891 66.8126 26.484 67.5016 26.889C68.1905 27.2939 68.7447 27.8038 69.1641 28.4337C70.0327 29.6635 70.4671 31.1783 70.4671 33.008C70.4671 34.8227 70.0777 36.7574 69.3138 38.782C68.535 40.8217 67.5315 42.8014 66.2734 44.7511C65.0153 46.6857 63.5925 48.5754 61.9899 50.3901C60.3873 52.2048 58.7547 53.9446 57.0923 55.5943L47.986 64.2029C45.2301 66.9774 43.3879 68.8821 42.4743 69.902C40.707 71.8816 39.5687 73.1714 39.0744 73.8013C38.5802 74.4312 38.1159 74.7912 37.7115 74.9111C37.3071 75.0311 36.7679 75.0911 36.0789 75.0911C35.39 75.0911 34.701 74.7912 33.9821 74.1913C33.2932 73.6213 32.709 72.8865 32.2597 72.0316Z" fill="white"/>
</g>
</svg>
