<svg width="62" height="50" viewBox="0 0 62 50" fill="none" xmlns="http://www.w3.org/2000/svg">
<g id="Icon">
<path id="Vector" d="M61.5385 5.92448C59.2301 6.94317 56.7877 7.6143 54.2885 7.91666C56.915 6.35466 58.8901 3.87314 59.8436 0.937519C57.3604 2.41224 54.6481 3.44698 51.8231 3.99741C50.6334 2.73117 49.2027 1.72385 47.6179 1.03667C46.033 0.349481 44.3271 -0.00321266 42.6038 2.205e-05C35.6269 2.205e-05 29.9808 5.65104 29.9808 12.6172C29.9758 13.5861 30.0851 14.5522 30.3064 15.4948C25.3034 15.2566 20.4045 13.9604 15.9231 11.6891C11.4416 9.41787 7.47626 6.22156 4.28077 2.3047C3.15971 4.22412 2.56684 6.41412 2.5641 8.64583C2.5641 13.0208 4.81154 16.888 8.20513 19.1536C6.19452 19.1051 4.22512 18.5647 2.4641 17.5781V17.7343C2.4641 23.8541 6.82308 28.9452 12.5923 30.1041C11.5074 30.3978 10.3894 30.5466 9.26667 30.5468C8.46997 30.5482 7.67509 30.4697 6.89359 30.3124C8.49743 35.3254 13.1654 38.9713 18.6949 39.0754C14.2018 42.5922 8.68541 44.493 3.01282 44.4791C2.00592 44.4775 0.999956 44.4167 0 44.2968C5.77074 48.0392 12.4788 50.0188 19.3256 49.9999C42.5769 49.9999 55.2795 30.7682 55.2795 14.0885C55.2795 13.5416 55.2654 12.9948 55.2397 12.4609C57.7052 10.6798 59.8382 8.46629 61.5385 5.92448Z" fill="#0D161A"/>
</g>
</svg>
